<svg width="56" height="56" viewBox="0 0 56 56" fill="none" xmlns="http://www.w3.org/2000/svg">
<rect width="56" height="56" rx="8" fill="#E9E7D2"/>
<path d="M18.25 31C18.25 33.4853 20.2647 35.5 22.75 35.5H34C36.0711 35.5 37.75 33.8211 37.75 31.75C37.75 30.1479 36.7453 28.7805 35.3316 28.2433C35.4407 27.9324 35.5 27.5981 35.5 27.25C35.5 25.5931 34.1569 24.25 32.5 24.25C32.1767 24.25 31.8654 24.3011 31.5737 24.3957C30.9765 22.1526 28.9312 20.5 26.5 20.5C23.6005 20.5 21.25 22.8505 21.25 25.75C21.25 26.0832 21.281 26.4092 21.3404 26.7252C19.5456 27.3167 18.25 29.0071 18.25 31Z" stroke="#264B4B" stroke-width="1.5" stroke-linecap="round" stroke-linejoin="round"/>
</svg>
