<svg width="56" height="56" viewBox="0 0 56 56" fill="none" xmlns="http://www.w3.org/2000/svg">
<rect width="56" height="56" rx="8" fill="#E9E7D2"/>
<path d="M31.3622 21.2136C34.2427 22.5007 36.25 25.3908 36.25 28.7497C36.25 33.306 32.5563 36.9997 28 36.9997C23.4437 36.9997 19.75 33.306 19.75 28.7497C19.75 26.5376 20.6206 24.5289 22.0378 23.0475C22.8043 24.1179 23.8205 24.9973 25.0012 25.6006C25.0463 22.825 26.348 20.3548 28.3621 18.7341C29.1255 19.7579 30.1379 20.6182 31.3622 21.2136Z" stroke="#264B4B" stroke-width="1.5" stroke-linecap="round" stroke-linejoin="round"/>
<path d="M28 34C30.0711 34 31.75 32.3211 31.75 30.25C31.75 28.3467 30.3321 26.7746 28.4949 26.5324C27.4866 27.437 26.7862 28.6779 26.5703 30.0787C25.7877 29.8874 25.0653 29.5425 24.4368 29.0779C24.3156 29.4467 24.25 29.8407 24.25 30.25C24.25 32.3211 25.9289 34 28 34Z" stroke="#264B4B" stroke-width="1.5" stroke-linecap="round" stroke-linejoin="round"/>
</svg>
