<svg width="56" height="56" viewBox="0 0 56 56" fill="none" xmlns="http://www.w3.org/2000/svg">
<rect width="56" height="56" rx="8" fill="#E9E7D2"/>
<path d="M24.25 34.75C24.25 35.5784 23.5784 36.25 22.75 36.25C21.9216 36.25 21.25 35.5784 21.25 34.75M24.25 34.75C24.25 33.9216 23.5784 33.25 22.75 33.25C21.9216 33.25 21.25 33.9216 21.25 34.75M24.25 34.75H30.25M21.25 34.75H19.375C18.7537 34.75 18.25 34.2463 18.25 33.625V30.2504M35.5 34.75C35.5 35.5784 34.8284 36.25 34 36.25C33.1716 36.25 32.5 35.5784 32.5 34.75M35.5 34.75C35.5 33.9216 34.8284 33.25 34 33.25C33.1716 33.25 32.5 33.9216 32.5 34.75M35.5 34.75L36.625 34.75C37.2463 34.75 37.7537 34.2457 37.7154 33.6256C37.5054 30.218 36.3473 27.0669 34.5016 24.4328C34.1394 23.9159 33.5529 23.6077 32.9227 23.5732H30.25M32.5 34.75H30.25M30.25 23.5732V22.6148C30.25 22.0473 29.8275 21.5672 29.263 21.5086C27.6153 21.3376 25.9429 21.25 24.25 21.25C22.5571 21.25 20.8847 21.3376 19.237 21.5086C18.6725 21.5672 18.25 22.0473 18.25 22.6148V30.2504M30.25 23.5732V30.2504M30.25 34.75V30.2504M30.25 30.2504H18.25" stroke="#264B4B" stroke-width="1.5" stroke-linecap="round" stroke-linejoin="round"/>
</svg>
