<svg width="56" height="56" viewBox="0 0 56 56" fill="none" xmlns="http://www.w3.org/2000/svg">
<rect width="56" height="56" rx="8" fill="#E9E7D2"/>
<path d="M18.25 37H37.75M19.75 19V37M30.25 19V37M36.25 23.5V37M22.75 22.75H23.5M22.75 25.75H23.5M22.75 28.75H23.5M26.5 22.75H27.25M26.5 25.75H27.25M26.5 28.75H27.25M22.75 37V33.625C22.75 33.0037 23.2537 32.5 23.875 32.5H26.125C26.7463 32.5 27.25 33.0037 27.25 33.625V37M19 19H31M30.25 23.5H37M33.25 27.25H33.2575V27.2575H33.25V27.25ZM33.25 30.25H33.2575V30.2575H33.25V30.25ZM33.25 33.25H33.2575V33.2575H33.25V33.25Z" stroke="#0D2F2F" stroke-width="1.5" stroke-linecap="round" stroke-linejoin="round"/>
</svg>
