<svg width="57" height="56" viewBox="0 0 57 56" fill="none" xmlns="http://www.w3.org/2000/svg">
<rect x="0.333374" width="56" height="56" rx="8" fill="#E6E4F2"/>
<path d="M19.3334 29.125C19.3334 28.5037 19.8371 28 20.4584 28H22.7084C23.3297 28 23.8334 28.5037 23.8334 29.125V35.875C23.8334 36.4963 23.3297 37 22.7084 37H20.4584C19.8371 37 19.3334 36.4963 19.3334 35.875V29.125Z" stroke="#5D46EB" stroke-width="1.5" stroke-linecap="round" stroke-linejoin="round"/>
<path d="M26.0834 24.625C26.0834 24.0037 26.5871 23.5 27.2084 23.5H29.4584C30.0797 23.5 30.5834 24.0037 30.5834 24.625V35.875C30.5834 36.4963 30.0797 37 29.4584 37H27.2084C26.5871 37 26.0834 36.4963 26.0834 35.875V24.625Z" stroke="#5D46EB" stroke-width="1.5" stroke-linecap="round" stroke-linejoin="round"/>
<path d="M32.8334 20.125C32.8334 19.5037 33.3371 19 33.9584 19H36.2084C36.8297 19 37.3334 19.5037 37.3334 20.125V35.875C37.3334 36.4963 36.8297 37 36.2084 37H33.9584C33.3371 37 32.8334 36.4963 32.8334 35.875V20.125Z" stroke="#5D46EB" stroke-width="1.5" stroke-linecap="round" stroke-linejoin="round"/>
</svg>
