<svg width="57" height="56" viewBox="0 0 57 56" fill="none" xmlns="http://www.w3.org/2000/svg">
<rect x="0.333374" width="56" height="56" rx="8" fill="#E6E4F2"/>
<path d="M26.2123 23.5188C27.3839 22.4937 29.2833 22.4937 30.4549 23.5188C31.6265 24.544 31.6265 26.206 30.4549 27.2312C30.251 27.4096 30.025 27.5569 29.7847 27.6733C29.039 28.0341 28.3336 28.6716 28.3336 29.5V30.25M37.3334 28C37.3334 32.9706 33.3039 37 28.3334 37C23.3628 37 19.3334 32.9706 19.3334 28C19.3334 23.0294 23.3628 19 28.3334 19C33.3039 19 37.3334 23.0294 37.3334 28ZM28.3334 33.25H28.3409V33.2575H28.3334V33.25Z" stroke="#5D46EB" stroke-width="1.5" stroke-linecap="round" stroke-linejoin="round"/>
</svg>
