<svg width="53" height="52" viewBox="0 0 53 52" fill="none" xmlns="http://www.w3.org/2000/svg">
<rect x="0.333374" width="52" height="52" rx="8" fill="#E6E4F2"/>
<path fill-rule="evenodd" clip-rule="evenodd" d="M26.3334 18C26.7476 18 27.0834 18.3358 27.0834 18.75V19.0084C28.5643 19.0414 30.0215 19.172 31.4488 19.3942C32.2255 19.5151 32.9934 19.6631 33.7513 19.8372C34.155 19.9299 34.4071 20.3324 34.3144 20.7361C34.2216 21.1398 33.8192 21.3919 33.4155 21.2991C33.0502 21.2152 32.6824 21.1376 32.3124 21.0665L34.0148 28.6123C34.0899 28.9452 33.9308 29.2868 33.6277 29.4435C32.9398 29.7994 32.1589 30 31.3334 30C30.5079 30 29.7271 29.7994 29.0391 29.4435C28.736 29.2868 28.5769 28.9452 28.652 28.6123L30.423 20.763C29.3267 20.6209 28.2125 20.5351 27.0834 20.5087V32.0138C28.3779 32.0616 29.6416 32.2324 30.8629 32.5153C31.2665 32.6087 31.5178 33.0116 31.4244 33.4151C31.331 33.8187 30.9281 34.07 30.5245 33.9766C29.1786 33.6649 27.7757 33.5 26.3334 33.5C24.8911 33.5 23.4882 33.6649 22.1423 33.9766C21.7388 34.07 21.3359 33.8187 21.2424 33.4151C21.149 33.0116 21.4004 32.6087 21.8039 32.5153C23.0252 32.2324 24.2889 32.0616 25.5834 32.0138V20.5087C24.4543 20.5351 23.3402 20.6209 22.2439 20.763L24.0148 28.6123C24.0899 28.9452 23.9308 29.2868 23.6277 29.4435C22.9398 29.7994 22.1589 30 21.3334 30C20.5079 30 19.7271 29.7994 19.0391 29.4435C18.736 29.2868 18.5769 28.9452 18.652 28.6123L20.3545 21.0665C19.9844 21.1376 19.6166 21.2152 19.2513 21.2991C18.8476 21.3919 18.4452 21.1398 18.3525 20.7361C18.2597 20.3324 18.5118 19.9299 18.9155 19.8372C19.6734 19.6631 20.4413 19.5151 21.2181 19.3942C22.6453 19.172 24.1025 19.0414 25.5834 19.0084V18.75C25.5834 18.3358 25.9192 18 26.3334 18ZM21.3334 23.5431L20.2533 28.3304C20.593 28.4404 20.9558 28.5 21.3334 28.5C21.711 28.5 22.0738 28.4404 22.4135 28.3304L21.3334 23.5431ZM31.3334 23.5431L30.2533 28.3304C30.593 28.4404 30.9558 28.5 31.3334 28.5C31.7111 28.5 32.0738 28.4404 32.4135 28.3304L31.3334 23.5431Z" fill="#5D46EB"/>
</svg>
