<svg width="56" height="56" viewBox="0 0 56 56" fill="none" xmlns="http://www.w3.org/2000/svg">
<rect width="56" height="56" rx="8" fill="#E9E7D2"/>
<path d="M28.3971 34.4064V27.0169C28.5603 27.0441 28.7256 27.0583 28.8912 27.0595C29.4983 27.0477 30.0974 26.9235 30.6559 26.6938C32.0732 26.1127 33.3546 25.2625 34.4235 24.1938C36.9294 21.7619 37 18.0119 37 17.8503C37 17.6248 36.907 17.4085 36.7416 17.2491C36.5761 17.0896 36.3517 17 36.1177 17C35.95 17 32.0589 17.068 29.5442 19.5C28.1265 20.7591 27.1104 22.3813 26.6148 24.1768C26.2821 23.7482 25.9195 23.342 25.5295 22.9608C23.9688 21.6318 21.9732 20.8734 19.8913 20.818C19.7731 20.8114 19.6548 20.8301 19.545 20.8727C19.4352 20.9154 19.3365 20.9809 19.256 21.0646C19.1731 21.1451 19.1078 21.2407 19.0639 21.3458C19.02 21.451 18.9983 21.5635 19.0001 21.6768C19.0572 23.6792 19.8409 25.5989 21.2148 27.102C22.6707 28.505 24.5148 29.5594 25.9618 29.5594C26.1893 29.5566 26.4151 29.5222 26.6324 29.4574V34.4489C24.2513 34.6735 21.9891 35.5598 20.1207 36.9999C20.0183 37.0652 19.9312 37.1505 19.8649 37.2502C19.7987 37.3498 19.7547 37.4618 19.7359 37.5787C19.7172 37.6957 19.7239 37.8152 19.7558 37.9295C19.7877 38.0438 19.844 38.1505 19.9211 38.2426C19.9982 38.3348 20.0944 38.4104 20.2036 38.4646C20.3128 38.5189 20.4325 38.5505 20.5551 38.5576C20.6777 38.5647 20.8005 38.547 20.9156 38.5058C21.0307 38.4645 21.1356 38.4005 21.2236 38.3179C23.1305 36.8556 25.4994 36.0665 27.9362 36.082C30.3731 36.0975 32.731 36.9165 34.6177 38.4029C34.7068 38.4745 34.8098 38.5285 34.9206 38.5617C35.0314 38.5949 35.1479 38.6067 35.2635 38.5964C35.3791 38.5861 35.4914 38.554 35.5941 38.5018C35.6967 38.4497 35.7877 38.3785 35.8618 38.2924C35.9361 38.2065 35.992 38.1073 36.0265 38.0004C36.0609 37.8936 36.0732 37.7813 36.0625 37.67C36.0519 37.5586 36.0185 37.4503 35.9644 37.3514C35.9103 37.2525 35.8364 37.1648 35.7471 37.0934C33.6661 35.4503 31.0853 34.5068 28.3971 34.4064ZM30.7794 20.6905C31.9946 19.6387 33.5166 18.9735 35.1382 18.7857C34.9433 20.3485 34.2532 21.8153 33.1618 22.9864C32.2642 23.8922 31.1871 24.6151 29.9942 25.1122C29.1648 25.4268 28.6089 25.3928 28.4412 25.2397C28.4412 25.2397 28.4412 25.1717 28.3971 25.1462V24.8571C28.3931 24.7589 28.3753 24.6616 28.3442 24.568C28.7341 23.0694 29.5826 21.7184 30.7794 20.6905ZM26.2354 27.7993C25.9971 28.0203 24.3471 27.7142 22.4677 25.903C21.6083 24.9864 21.0523 23.8436 20.8707 22.6207C22.1377 22.7933 23.3215 23.3296 24.2677 24.1598C26.1471 25.971 26.4648 27.5612 26.2354 27.7993Z" fill="#264B4B"/>
</svg>
